<svg xmlns="http://www.w3.org/2000/svg" width="1em" height="1em" viewBox="0 0 24 24"><path fill="currentColor" d="M7.443 5.35c.639 0 1.23.05 1.77.198c.541.099.984.297 1.377.544c.394.248.689.594.885 1.039c.197.445.296.99.296 1.583c0 .693-.148 1.286-.492 1.731c-.295.446-.787.841-1.377 1.138c.836.248 1.475.693 1.869 1.287c.393.593.639 1.335.639 2.176c0 .693-.148 1.286-.394 1.781c-.245.495-.639.94-1.082 1.237a5.08 5.08 0 0 1-1.573.692c-.59.149-1.18.248-1.77.248H1V5.35h6.443Zm-.394 5.54c.541 0 .984-.148 1.328-.395c.344-.247.492-.693.492-1.237c0-.297-.05-.593-.148-.791c-.098-.198-.246-.347-.442-.495c-.197-.099-.394-.198-.64-.247c-.246-.05-.491-.05-.787-.05H4v3.216h3.05Zm.148 5.838c.295 0 .59-.05.836-.099c.246-.05.492-.148.688-.297a1.76 1.76 0 0 0 .492-.544c.098-.247.197-.544.197-.89c0-.693-.197-1.188-.59-1.534c-.394-.297-.935-.445-1.574-.445H4v3.81h3.197Zm9.492-.05c.393.396.983.594 1.77.594c.541 0 1.033-.148 1.426-.395c.394-.297.64-.594.738-.89h2.41c-.394 1.186-.984 2.027-1.77 2.572c-.788.494-1.722.791-2.853.791a5.751 5.751 0 0 1-2.115-.396a3.928 3.928 0 0 1-1.574-1.088a3.93 3.93 0 0 1-.983-1.633c-.246-.643-.345-1.335-.345-2.127c0-.742.099-1.434.345-2.078a5.34 5.34 0 0 1 1.033-1.681a4.985 4.985 0 0 1 1.573-1.089a5.49 5.49 0 0 1 2.066-.396c.836 0 1.574.149 2.213.495c.64.346 1.131.742 1.524 1.336c.394.544.69 1.187.886 1.88c.098.692.147 1.385.098 2.176H16c0 .792.295 1.534.689 1.93Zm3.098-5.194c-.344-.346-.885-.544-1.525-.544c-.442 0-.787.1-1.082.248c-.295.148-.491.346-.688.544a1.323 1.323 0 0 0-.345.692c-.049.248-.098.446-.098.643h4.426c-.098-.742-.344-1.236-.688-1.583ZM15.459 6.29h5.508v1.336H15.46V6.29Z"/></svg>