<svg xmlns="http://www.w3.org/2000/svg" width="1em" height="1em" viewBox="0 0 14 14"><path fill="currentColor" fill-rule="evenodd" d="m5.385 5.242l1.404-1.27a3 3 0 0 1 2.406-.747l1.858.246l2.578-1.393a.25.25 0 0 1 .369.22v4.738a1 1 0 0 1-.418.813L11.846 9.09l-1.88-1.576a2.5 2.5 0 0 0 .966-.63a.625.625 0 1 0-.9-.869c-.185.193-.4.317-.652.366c-.219.043-.498.036-.849-.072l-.446-.375L6.84 6.943a1.12 1.12 0 0 1-1.455-1.701Zm-.838-.928l1.008-.911a3.064 3.064 0 0 0-1.33-.063l-1.835.318L.376 2.574A.255.255 0 0 0 0 2.799v4.236c0 .338.167.654.446.844l5.455 3.719a2.043 2.043 0 0 0 2.334-.023l2.506-1.779l-2.67-2.24l-.445.358a2.37 2.37 0 0 1-3.08-3.6Z" clip-rule="evenodd"/></svg>