<svg xmlns="http://www.w3.org/2000/svg" xml:space="preserve" style="enable-background:new 0 0 391.74 387.04"
    viewBox="0 0 391.74 387.04">
    <linearGradient id="a" x1="174.787" x2="206.016" y1="432.471" y2="78.543" gradientUnits="userSpaceOnUse">
        <stop offset="0" style="stop-color:#2d42cd" />
        <stop offset="1" style="stop-color:#4b268f" />
    </linearGradient>
    <path
        d="M391.74 193.52c0 45.15-15.65 86.69-41.88 119.61-5.54 6.95-16.67 4.54-18.66-4.12-7.45-32.43-23.16-55.91-23.16-115.49 0-63.94 17.35-86.09 23.94-122.5 1.09-6 8.63-8.02 12.63-3.42 29.37 33.85 47.13 77.83 47.13 125.92zm-132.86 70.21c5.42-4.25 11.55-9.11 11.83-17.33-.59-8.39-17.89-16.82-22.89-24.5-.37 8.37-2.78 17.78-7.89 28.7 3.77 8.13 12.08 10.82 18.95 13.13zm-78.61-147.67c16.42 42.74 58.85 59.6 66.44 92.99 2.43-44.66 22.77-47.66 22.77-97.96 0-46.36-28.07-56.41-25.91-91.77.48-7.91-5.11-14.89-12.91-16.27-11.29-2-22.92-3.05-34.79-3.05-6.53 0-12.98.32-19.34.94-9.53.93-15.66 10.74-12.05 19.61 12.75 31.31-4.35 51.81 15.79 95.51zm-46.93 7.33c-5.84 4.21-12.37 8.05-11.76 16.73.59 8.39 17.88 16.81 22.88 24.49.38-8.38 2.81-17.8 7.96-28.72-3.11-9.43-11.65-10.27-19.08-12.5zm78.67 147.33c-16.36-42.76-58.84-59.79-66.44-93.19-2.44 44.73-22.76 47.75-22.76 98.16 0 46.12 27.72 56.42 25.99 91.19-.42 8.46 5.43 15.96 13.78 17.38 10.82 1.83 21.95 2.79 33.3 2.79 8.39 0 16.65-.53 24.76-1.54 7.49-.94 11.77-8.94 8.61-15.8-15.4-33.33 3.6-53.65-17.24-98.99zm-128.36-78.3c-6.01-61.06-20.43-83.74-25.8-116.05-1.19-7.15-10.19-9.58-14.76-3.95C16.14 105.58 0 147.69 0 193.52c0 46.07 16.3 88.37 43.51 121.6 5.75 7.02 17.05 4.46 19.4-4.31 9.13-34.1 26.73-57.59 20.74-118.39z"
        style="fill:url(#a)" />
</svg>