<svg xmlns="http://www.w3.org/2000/svg" xml:space="preserve" style="enable-background:new 0 0 1164.06 284.21"
    viewBox="0 0 1164.06 284.21">
    <path
        d="M109.25 279.19 52.32 110.5v168.69H0V0h52.74l54 160.32V0h52.32v279.19h-49.81zm93.34 0V0h122.23v46.46h-69.48v67.39h66.55v46.46h-66.55v72.41h69.48v46.46H202.59zm158.22 0V0h84.13c46.46 0 66.97 32.65 66.97 71.16 0 35.16-16.74 56.93-41.02 64.04 26.37 4.19 44.79 34.32 44.79 68.65 0 42.7-19.67 75.34-67.81 75.34h-87.06zm52.74-164.5h17.58c19.67 0 26.79-14.23 26.79-34.74 0-20.09-7.12-34.74-26.79-34.74h-17.58v69.48zm0 119.3h19.25c19.67 0 28.88-13.39 28.88-37.25 0-20.51-9.21-37.25-28.88-37.25h-19.25v74.5zM550.01 0h52.74v200.92c0 27.21 10.46 36.83 26.79 36.83 15.91 0 26.79-9.63 26.79-36.83V0h52.74v198.41c0 59.86-38.09 85.81-79.53 85.81s-79.53-25.95-79.53-85.81V0zM752.6 279.19V0h52.74v232.73h69.48v46.46H752.6zm152.78 0V0h52.74v279.19h-52.74zm200.49 0-34.32-96.27-33.91 96.27h-58.18l61.53-142.32L982.81 0h58.18l30.56 91.25L1102.11 0h58.6l-58.6 136.46 61.95 142.74h-58.19z"
        fill="currentColor" />
</svg>