<svg xmlns="http://www.w3.org/2000/svg" xml:space="preserve" viewBox="0 0 123 91">
    <path fill="currentcolor" fill-rule="evenodd"
        d="M65 53h3c30 5 51-9 47-53-20 7-48 6-54 31C56 6 28 7 8 0 4 44 25 58 55 53h3c1 1 4 2 7 0zm-54 8 4 1 2 1a10 10 0 0 1 4 4l1 3a16 16 0 0 1-1 10 10 10 0 0 1-3 3 10 10 0 0 1-4 2 15 15 0 0 1-8-1 11 11 0 0 1-3-2 10 10 0 0 1-2-4 14 14 0 0 1-1-5 16 16 0 0 1 1-5 11 11 0 0 1 2-3 9 9 0 0 1 4-3h2l2-1zm6 12v-2l-1-2v-1a5 5 0 0 0-3-2 6 6 0 0 0-4 0 5 5 0 0 0-2 1l-1 2a8 8 0 0 0-1 2 12 12 0 0 0 1 7l1 1 1 1h1l1 1a6 6 0 0 0 4-1l1-1 1-2 1-2v-2zm14 6v3l-1 2v1h-2l-1-1-1-1V71l1-3 2-1 1 1 1 1 1-1h1l1-1 3 1 1 1v3h-3a5 5 0 0 0-1 0h-2v1l-1 1v5zm25-8v12a17 17 0 0 1-1 4v1a6 6 0 0 1-4 3h-2a19 19 0 0 1-4 0 10 10 0 0 1-3-1l-2-1v-1l-1-1 1-2a2 2 0 0 1 2 0h1v1h1v1a3 3 0 0 0 1 0h1v1a7 7 0 0 0 3-1h1v-1l1-1v-2a7 7 0 0 1-2 1l-1 1a8 8 0 0 1-4-1h-2a7 7 0 0 1-2-4l-1-2a13 13 0 0 1 0-6 8 8 0 0 1 2-2 7 7 0 0 1 2-2 7 7 0 0 1 3-1l2 1a6 6 0 0 1 3 1v1-1a2 2 0 0 1 1-1h1v-1l2 1 1 2v1zm-12 5v2l1 2 1 1a3 3 0 0 0 4-1v-1l1-1v-4l-1-1-1-1-2-1-2 2-1 1v2zm26 7a15 15 0 0 1-3 1 8 8 0 0 1-3 1h-2a5 5 0 0 1-3-2 5 5 0 0 1-1-3l1-2 1-1 1-1 2-1a342 342 0 0 1 5-1h1v-2l-1-1h-3l-1 1-1 1-1 1a3 3 0 0 1-2 0 2 2 0 0 1-1-1v-2l1-1 1-1a8 8 0 0 1 3-1l3-1 2 1h2l2 1 1 1v9a7 7 0 0 0 1 2v3h-1v1h-2l-1-1h-1v-1zm-1-6h-2l-1 1a26 26 0 0 0-2 0v1h-1v1l1 1h1v1l2-1h1l1-1v-3zm14-7 1-1 1-1h1a8 8 0 0 1 4 0h1a5 5 0 0 1 2 2 5 5 0 0 1 1 2 13 13 0 0 1 0 2v9a2 2 0 0 1-2 2h-1l-1-1-1-1V73l-1-1-2-1v1a3 3 0 0 0-2 1l-1 1v9a2 2 0 0 1-1 2h-1l-2-1-1-1V70l1-2h1a2 2 0 0 1 2 0l1 1v1zm20 0v12l-1 2a2 2 0 0 1-2 1l-1-1-1-1V69a2 2 0 0 1 2-1v-1a2 2 0 0 1 3 2v1zm-2-4a3 3 0 0 1-2 0l-1-1a3 3 0 0 1 0-2l1-1h1l1-1 1 1 1 1v2l-1 1h-1zm22 14-1 1v1a6 6 0 0 1-2 2 8 8 0 0 1-3 1h-2l-6-2-2-3-1-4 1-2a9 9 0 0 1 2-4l2-1 2-1a11 11 0 0 1 5 0 9 9 0 0 1 3 2l1 1 1 1v1l-1 1a2 2 0 0 1-2 1l-1-1h-1v-1a7 7 0 0 0-1-1l-1-1a4 4 0 0 0-2 1l-2 1v1a8 8 0 0 0 0 5 3 3 0 0 0 2 2 4 4 0 0 0 2 0 3 3 0 0 0 2-1l1-1v-1l1-1h1a2 2 0 0 1 1 1l1 1v1zM54 45C46 27 25 21 15 9c11 22 20 23 39 36zm15 0c8-18 29-24 39-36-11 22-20 23-39 36z"
        clip-rule="evenodd" />
</svg>