<svg xmlns="http://www.w3.org/2000/svg" width="1em" height="1em" viewBox="0 0 24 24"><path fill="currentColor" d="M12.001 22c-5.523 0-10-4.477-10-10s4.477-10 10-10s10 4.477 10 10s-4.477 10-10 10Zm6.67-10a1.46 1.46 0 0 0-2.47-1a7.12 7.12 0 0 0-3.85-1.23l.65-3.12l2.14.45a1 1 0 1 0 .13-.61L12.821 6a.31.31 0 0 0-.37.24l-.74 3.47a7.14 7.14 0 0 0-3.9 1.23a1.46 1.46 0 1 0-1.61 2.39a2.87 2.87 0 0 0 0 .44c0 2.24 2.61 4.06 5.83 4.06s5.83-1.82 5.83-4.06a2.885 2.885 0 0 0 0-.44a1.46 1.46 0 0 0 .81-1.33Zm-10 1a1 1 0 1 1 2 0a1 1 0 0 1-2 0Zm5.81 2.75a3.84 3.84 0 0 1-2.47.77a3.84 3.84 0 0 1-2.47-.77a.27.27 0 0 1 .38-.38a3.27 3.27 0 0 0 2.08.63a3.28 3.28 0 0 0 2.09-.61a.28.28 0 1 1 .39.4v-.04Zm-.18-1.71a1 1 0 1 1 1-1a1 1 0 0 1-1.01 1.04l.01-.04Z"/></svg>