<svg xmlns="http://www.w3.org/2000/svg" width="24" height="24" viewBox="0 0 24 24">
    <g fill="none">
        <circle cx="12" cy="12" r="2" stroke="currentColor" stroke-width="1.5" />
        <path fill="currentColor"
            d="m5.399 5.88l.375-.65a.75.75 0 0 0-.925.14l.55.51ZM3.4 9.344l-.717-.222a.75.75 0 0 0 .342.871l.375-.65Zm-.002 5.311l-.375-.65a.75.75 0 0 0-.341.872l.716-.222Zm2 3.464l-.55.51a.75.75 0 0 0 .925.14l-.375-.65Zm4.6 2.655h-.75c0 .35.243.653.584.731l.167-.731Zm4.001.002l.167.732a.75.75 0 0 0 .583-.732H14ZM18.6 18.12l-.375.65a.75.75 0 0 0 .925-.14l-.55-.51Zm1.998-3.466l.717.222a.75.75 0 0 0-.342-.871l-.375.65Zm.002-5.311l.375.65a.75.75 0 0 0 .341-.872l-.716.222Zm-2-3.465l.55-.509a.75.75 0 0 0-.925-.14l.375.65ZM14 3.225h.75a.75.75 0 0 0-.583-.731L14 3.225Zm-4-.002l-.167-.732a.75.75 0 0 0-.583.732H10Zm4 1.849h-.75h.75Zm5 8.66l-.375.65l.375-.65Zm-2 3.464l-.375.65l.375-.65ZM5 13.732l.375.65l-.375-.65Zm2-6.928l-.375.65l.375-.65ZM4.117 9.566a8.24 8.24 0 0 1 1.831-3.177l-1.1-1.02a9.74 9.74 0 0 0-2.164 3.754l1.433.443Zm.738 6.559a8.279 8.279 0 0 1-.74-1.69l-1.433.443a9.78 9.78 0 0 0 .874 1.997l1.3-.75Zm1.094 1.486a8.28 8.28 0 0 1-1.094-1.486l-1.299.75a9.78 9.78 0 0 0 1.292 1.755l1.101-1.019Zm7.884 2.435a8.24 8.24 0 0 1-3.666-.002l-.334 1.462a9.741 9.741 0 0 0 4.334.003l-.334-1.463Zm6.05-5.612a8.241 8.241 0 0 1-1.831 3.177l1.1 1.02a9.74 9.74 0 0 0 2.164-3.755l-1.433-.442Zm-.738-6.559c.315.547.56 1.113.74 1.69l1.432-.443a9.778 9.778 0 0 0-.873-1.997l-1.3.75ZM18.05 6.389c.41.443.778.94 1.094 1.486l1.299-.75A9.778 9.778 0 0 0 19.15 5.37l-1.1 1.019Zm-7.884-2.435a8.24 8.24 0 0 1 3.666.002l.334-1.462a9.74 9.74 0 0 0-4.334-.003l.334 1.463Zm.583 1.118v-1.85h-1.5v1.85h1.5ZM7.375 6.154L5.774 5.23l-.75 1.299l1.6.924l.75-1.299Zm-2.75 6.928l-1.601.925l.75 1.299l1.6-.924l-.75-1.3Zm.75-3.464l-1.6-.923l-.75 1.3l1.6.923l.75-1.3Zm5.375 11.157v-1.847h-1.5v1.847h1.5Zm-4.125-4.228l-1.601.924l.75 1.3l1.6-.925l-.75-1.3Zm12.351.924l-1.601-.924l-.75 1.299l1.601.924l.75-1.299Zm-4.226 3.306v-1.849h-1.5v1.85h1.5Zm5.476-12.083l-1.601.924l.75 1.3l1.601-.925l-.75-1.299Zm.748 5.312l-1.599-.924l-.75 1.3l1.6.923l.75-1.3ZM14.75 5.072V3.225h-1.5v1.847h1.5Zm3.476.158l-1.601.924l.75 1.3l1.601-.925l-.75-1.3Zm-4.976-.158c0 2.117 2.292 3.44 4.125 2.381l-.75-1.299a1.25 1.25 0 0 1-1.875-1.082h-1.5Zm5.375 4.546c-1.833 1.059-1.833 3.705 0 4.764l.75-1.3a1.25 1.25 0 0 1 0-2.165l-.75-1.299Zm-1.25 6.929c-1.833-1.059-4.125.264-4.125 2.381h1.5a1.25 1.25 0 0 1 1.875-1.082l.75-1.3Zm-6.625 2.381c0-2.117-2.292-3.44-4.125-2.381l.75 1.299a1.25 1.25 0 0 1 1.875 1.082h1.5Zm-5.375-4.546c1.833-1.059 1.833-3.705 0-4.764l-.75 1.3a1.25 1.25 0 0 1 0 2.165l.75 1.299Zm3.875-9.31a1.25 1.25 0 0 1-1.875 1.082l-.75 1.3c1.833 1.058 4.125-.265 4.125-2.382h-1.5Z" />
    </g>
</svg>