<svg xmlns="http://www.w3.org/2000/svg" width="24" height="24" viewBox="0 0 24 24">
    <g fill="none" stroke="currentColor" stroke-linecap="round" stroke-linejoin="round" stroke-width="1.5">
        <path fill="currentColor"
            d="M19.5 22a1.5 1.5 0 1 0 0-3a1.5 1.5 0 0 0 0 3Zm-10 0a1.5 1.5 0 1 0 0-3a1.5 1.5 0 0 0 0 3Z" />
        <path
            d="M16.5 4H22l-2 11h-4.5m1-11l-1 11m1-11h-5.75m4.75 11h-4m-.75-11H5l2 11h4.5m-.75-11l.75 11M5 4c-.167-.667-1-2-3-2m18 13H5.23c-1.784 0-2.73.781-2.73 2c0 1.219.946 2 2.73 2H19.5" />
    </g>
</svg>