<svg xmlns="http://www.w3.org/2000/svg" width="1em" height="1em" viewBox="0 0 24 24"><path fill="currentColor" d="M6.527 14.514a1.973 1.973 0 0 1-1.967 1.968a1.973 1.973 0 0 1-1.968-1.968c0-1.083.885-1.968 1.968-1.968h1.967v1.968Zm.992 0c0-1.083.885-1.968 1.968-1.968s1.967.885 1.967 1.968v4.927a1.973 1.973 0 0 1-1.967 1.968a1.973 1.973 0 0 1-1.968-1.968v-4.927Zm1.968-7.987A1.973 1.973 0 0 1 7.519 4.56c0-1.083.885-1.968 1.968-1.968s1.967.885 1.967 1.968v1.967H9.487Zm0 .992c1.083 0 1.967.885 1.967 1.968a1.973 1.973 0 0 1-1.967 1.967H4.56a1.973 1.973 0 0 1-1.968-1.967c0-1.083.885-1.968 1.968-1.968h4.927Zm7.986 1.968c0-1.083.885-1.968 1.968-1.968s1.968.885 1.968 1.968a1.973 1.973 0 0 1-1.968 1.967h-1.968V9.487Zm-.991 0a1.973 1.973 0 0 1-1.968 1.967a1.973 1.973 0 0 1-1.968-1.967V4.56c0-1.083.885-1.968 1.968-1.968s1.968.885 1.968 1.968v4.927Zm-1.968 7.986c1.083 0 1.968.885 1.968 1.968a1.973 1.973 0 0 1-1.968 1.968a1.973 1.973 0 0 1-1.968-1.968v-1.968h1.968Zm0-.991a1.973 1.973 0 0 1-1.968-1.968c0-1.083.885-1.968 1.968-1.968h4.927c1.083 0 1.968.885 1.968 1.968a1.973 1.973 0 0 1-1.968 1.968h-4.927Z"/></svg>