<svg xmlns="http://www.w3.org/2000/svg" width="1em" height="1em" viewBox="0 0 24 24"><path fill="currentColor" d="M11.872 21.765c-1.19 0-1.984-.562-2.693-1.057c-.504-.357-.976-.696-1.533-.79a4.562 4.562 0 0 0-.803-.066c-.472 0-.847.071-1.114.125c-.17.03-.312.058-.424.058c-.116 0-.263-.032-.32-.228c-.05-.16-.081-.312-.112-.459c-.08-.37-.147-.597-.286-.62c-1.489-.227-2.38-.57-2.554-.976c-.014-.044-.031-.09-.031-.125c-.01-.124.08-.227.205-.25c1.181-.195 2.242-.824 3.138-1.858c.696-.803 1.035-1.579 1.066-1.663c0-.01.009-.01.009-.01c.17-.351.205-.65.102-.895c-.192-.46-.825-.656-1.257-.79c-.111-.03-.205-.066-.285-.093c-.37-.147-.986-.46-.905-.892c.058-.312.472-.535.811-.535c.094 0 .174.014.24.05c.38.173.723.262 1.017.262c.366 0 .54-.138.584-.182a24.904 24.904 0 0 0-.035-.593c-.09-1.365-.192-3.059.24-4.03c1.298-2.907 4.053-3.14 4.869-3.14L12.157 3h.05c.815 0 3.57.227 4.868 3.139c.437.971.33 2.67.24 4.03l-.009.067c-.008.182-.022.356-.03.535c.044.035.204.169.534.173c.286-.008.598-.102.954-.263a.805.805 0 0 1 .312-.066c.125 0 .25.03.357.066h.009c.299.112.495.321.495.54c.009.205-.152.517-.914.825c-.08.03-.174.067-.285.093c-.424.13-1.057.335-1.258.79c-.111.24-.067.548.103.896c0 .008.009.008.009.008c.049.125 1.337 3.05 4.204 3.527a.246.246 0 0 1 .205.25a.267.267 0 0 1-.031.129c-.174.41-1.057.744-2.555.976c-.138.022-.205.25-.285.62a6.889 6.889 0 0 1-.111.459c-.045.147-.139.227-.3.227h-.021a2.24 2.24 0 0 1-.424-.049a5.282 5.282 0 0 0-1.115-.116a4.97 4.97 0 0 0-.802.067c-.553.09-1.03.433-1.534.79c-.718.49-1.516 1.052-2.697 1.052h-.254Z"/></svg>