<svg xmlns="http://www.w3.org/2000/svg" width="1em" height="1em" viewBox="0 0 24 24"><path fill="currentColor" d="M22.212 5.656a8.384 8.384 0 0 1-2.401.658A4.195 4.195 0 0 0 21.649 4c-.82.488-1.719.83-2.655 1.015a4.182 4.182 0 0 0-7.126 3.814a11.874 11.874 0 0 1-8.621-4.37a4.168 4.168 0 0 0-.566 2.103c0 1.45.739 2.731 1.86 3.481a4.169 4.169 0 0 1-1.894-.523v.051a4.185 4.185 0 0 0 3.355 4.102a4.205 4.205 0 0 1-1.89.072A4.185 4.185 0 0 0 8.02 16.65a8.394 8.394 0 0 1-6.192 1.732a11.831 11.831 0 0 0 6.41 1.88c7.694 0 11.9-6.373 11.9-11.9c0-.18-.004-.362-.012-.541a8.497 8.497 0 0 0 2.086-2.164Z"/></svg>