<svg xmlns="http://www.w3.org/2000/svg" xml:space="preserve" style="enable-background:new 0 0 128 128"
    viewBox="0 0 128 128">
    <path
        d="M124.21 64.26c-.74 10.04-3.11 17.41-6.62 24.44-3.51 6.92-8.16 13.48-13.55 19.3-10.84 11.83-24.57 19.77-39.54 16.43-14.97-3.33-28.69-9.34-39.54-19.09-5.4-4.97-10.05-11.16-13.56-18.39-3.5-7.14-5.87-15.3-6.61-21.78-.74-7.2.23-12.1 2.77-17.44 2.53-5.21 6.63-10.86 12.04-16.69C30.36 19.31 46.5 7.4 64.5 5c18-2.38 34.14-1.52 44.91 8.42 5.41 4.96 9.51 12.29 12.04 21.51 2.53 9.09 3.5 20.07 2.76 29.33z"
        style="fill:#4d2e8c" />
    <path d="M76.74 102.36 60.21 53.37v48.99H45.02V21.28h15.32l15.68 46.56V21.28h15.19v81.08H76.74z"
        style="fill:#fff" />
</svg>