<svg xmlns="http://www.w3.org/2000/svg" xml:space="preserve" style="enable-background:new 0 0 432.02 437.04"
    viewBox="0 0 432.02 437.04">
    <path
        d="M431.14 217.49c-2.68 36.16-11.22 62.74-23.85 88.06-12.65 24.92-29.38 48.57-48.83 69.53-39.07 42.61-88.51 71.24-142.45 59.19-53.95-11.98-103.38-33.65-142.44-68.79-19.46-17.91-36.19-40.23-48.84-66.27C12.1 273.54 3.55 244.14.88 220.79c-2.68-25.95.82-43.61 9.96-62.82 9.12-18.78 23.9-39.11 43.38-60.12C93.01 55.57 151.14 12.65 216.01 4c64.87-8.59 123-5.47 161.8 30.33 19.47 17.86 34.25 44.28 43.37 77.5 9.14 32.76 12.64 72.31 9.96 105.66z"
        style="fill:#4d2e8c" />
    <path d="m260.12 354.79-59.56-176.5v176.5h-54.74V62.67H201l56.5 167.74V62.67h54.74v292.12h-52.12z"
        style="fill:#fff" />
</svg>